<svg version="1.1" id="Layer_1" xmlns="http://www.w3.org/2000/svg" xmlns:xlink="http://www.w3.org/1999/xlink" x="0px" y="0px"
	 width="100%" viewBox="0 0 1288 902" enable-background="new 0 0 1288 902" xml:space="preserve">
<path fill="#FFFFFF" opacity="1.000000" stroke="none" 
	d="
M922.000000,903.000000 
	C614.701660,903.000000 307.903259,903.000000 1.052452,903.000000 
	C1.052452,602.402588 1.052452,301.805145 1.052452,1.103850 
	C430.215149,1.103850 859.430298,1.103850 1288.822754,1.103850 
	C1288.822754,301.666565 1288.822754,602.333313 1288.822754,903.000000 
	C1166.804932,903.000000 1044.652466,903.000000 922.000000,903.000000 
M950.914856,792.058594 
	C953.712952,792.058594 956.511047,792.058594 959.730835,792.058594 
	C959.730835,802.240601 959.730835,811.975708 959.730835,821.711304 
	C961.394104,821.711304 962.610291,821.711304 964.300476,821.711304 
	C964.300476,811.709045 964.300476,801.991943 964.300476,792.328003 
	C974.735046,791.647034 974.735046,791.647034 973.911743,788.379089 
	C965.923706,788.379089 957.969666,788.379089 949.340454,788.284546 
	C948.889221,788.296753 948.437988,788.309021 947.207153,788.099243 
	C944.072083,787.352600 943.717285,789.692322 943.189636,791.767578 
	C941.364258,798.946228 939.569763,806.132812 937.603821,813.951233 
	C935.206848,805.999451 932.924316,798.746399 930.865173,791.430420 
	C930.103699,788.724792 928.857056,787.403198 925.487915,788.138245 
	C925.367432,788.422729 925.246948,788.707214 924.737671,789.633789 
	C922.376526,797.543396 920.015442,805.452942 917.617493,813.485901 
	C915.340210,805.185852 913.119019,797.090271 910.907593,788.480591 
	C910.612244,788.403076 910.316895,788.325623 909.176270,788.091003 
	C905.327881,787.827515 906.806702,790.460449 907.217163,792.077209 
	C909.461426,800.917603 911.966431,809.692383 914.155090,818.545837 
	C914.995422,821.945190 916.611328,822.873108 919.739136,821.487488 
	C922.265015,812.898499 924.775085,804.363098 927.476562,795.176941 
	C929.915466,803.336548 932.258667,810.765442 934.320618,818.271606 
	C935.176758,821.388245 936.448486,823.024475 940.201477,821.465881 
	C942.751038,811.442322 945.361389,801.179382 948.607239,790.715149 
	C949.073364,791.096069 949.539490,791.477051 950.914856,792.058594 
M627.125244,323.198181 
	C646.498657,308.986908 660.074524,290.440979 668.082947,267.861359 
	C678.754150,237.773987 678.030334,207.036758 672.378845,176.215897 
	C664.801392,134.892670 649.115967,96.527992 628.830811,59.925762 
	C628.184692,58.759956 627.331970,57.708645 626.235291,56.107021 
	C626.127380,57.232903 626.035828,57.569477 626.075562,57.889744 
	C626.198364,58.878510 626.383850,59.859276 626.522644,60.846287 
	C629.764343,83.897850 630.955933,106.942886 624.900024,129.731125 
	C616.701050,160.583679 597.964417,181.132065 566.195496,188.536255 
	C563.427734,189.181320 560.580017,189.483200 556.927429,190.082672 
	C559.215515,191.820908 560.661377,192.916443 562.104309,194.015915 
	C582.201843,209.329620 600.902405,226.048599 614.885742,247.383774 
	C626.229065,264.690887 633.034302,283.329651 629.985901,304.415405 
	C629.087463,310.629852 627.234558,316.706360 625.413757,323.130768 
	C625.441956,323.563049 625.470215,323.995331 625.498474,324.427612 
	C625.831970,324.098175 626.165466,323.768738 627.125244,323.198181 
M926.882324,369.752899 
	C924.332703,370.972687 921.756592,372.140198 919.237488,373.419922 
	C863.789795,401.587311 805.035950,418.249847 743.045715,422.680267 
	C713.819702,424.769012 684.468811,425.177124 655.167297,426.123199 
	C620.878540,427.230255 586.528259,427.118256 552.454956,431.993073 
	C520.265320,436.598389 489.250122,444.925964 460.614258,460.828583 
	C433.964386,475.628357 411.731964,495.337677 394.057526,520.958984 
	C394.095093,521.222412 394.132660,521.485901 394.170227,521.749329 
	C394.514618,521.569641 394.859039,521.389954 395.861938,521.027161 
	C406.014130,514.063354 415.898560,506.665192 426.365570,500.212036 
	C468.062378,474.505127 514.320801,464.849579 562.508057,463.122864 
	C593.292358,462.019806 624.122437,462.243958 654.928528,461.683685 
	C688.069153,461.080902 721.142944,459.593597 753.930359,454.119873 
	C801.933472,446.105988 847.179138,430.729248 887.418762,402.866760 
	C901.699585,392.978516 914.597168,381.092438 928.658630,369.938721 
	C928.670044,369.698669 928.681396,369.458649 928.692810,369.218628 
	C928.319641,369.337616 927.946533,369.456635 926.882324,369.752899 
M941.155701,433.640411 
	C943.522705,431.399872 945.889771,429.159332 948.256775,426.918793 
	C948.007263,426.539856 947.757751,426.160919 947.508240,425.781982 
	C945.643188,426.631561 943.744812,427.415314 941.917969,428.340363 
	C900.711792,449.205322 857.615051,464.497620 812.053833,472.602783 
	C772.392212,479.658417 732.312683,481.181702 692.161499,482.028229 
	C652.539673,482.863556 612.850037,482.535431 573.460510,488.002777 
	C539.729919,492.684662 507.409943,501.712555 477.612000,518.750916 
	C453.283173,532.662048 426.455994,557.271545 414.119843,577.945496 
	C416.554108,576.493042 418.089600,575.668884 419.529907,574.702759 
	C429.342651,568.120789 438.874176,561.075867 448.980164,554.982544 
	C490.786591,529.775330 537.022949,520.710083 585.020691,519.103638 
	C615.319031,518.089539 645.656677,518.300110 675.973145,517.762085 
	C716.307007,517.046387 756.487549,514.790833 796.062378,506.031036 
	C850.241760,494.038574 898.763489,470.804413 941.155701,433.640411 
M588.294617,242.209900 
	C577.109375,231.073242 566.731140,218.952011 554.580200,208.993622 
	C524.092224,184.006836 488.591370,168.031006 451.707642,154.978180 
	C442.824432,151.834503 433.738342,149.264145 424.745575,146.430115 
	C427.753662,150.197083 431.275604,152.885559 434.732361,155.655350 
	C452.953339,170.255249 469.437195,186.418869 479.433502,207.970078 
	C492.381104,235.884003 490.101379,262.530182 471.912384,287.593262 
	C471.468811,288.204529 471.185425,288.932068 470.496582,290.227234 
	C476.077118,289.572784 480.982849,288.920776 485.904877,288.433472 
	C507.849915,286.260834 529.770630,285.492920 551.545349,290.062225 
	C576.478577,295.294281 596.823975,307.200104 609.508606,330.152283 
	C610.761597,332.419495 611.918762,334.739594 613.575806,337.905090 
	C618.779785,301.914856 609.780334,270.759308 588.294617,242.209900 
M818.371399,379.920349 
	C855.988159,370.663483 891.421814,356.082977 924.841675,336.568176 
	C921.594788,336.681305 918.480286,337.180878 915.351196,337.559082 
	C894.422791,340.088562 873.495300,340.901672 852.807495,335.909393 
	C820.560303,328.127655 799.170837,309.024323 791.516357,275.999084 
	C790.947021,273.542786 790.694214,271.013153 790.154846,267.647675 
	C788.329529,270.049866 787.144958,271.632507 785.936035,273.196259 
	C771.615417,291.719147 756.170349,309.175842 736.886414,322.734100 
	C717.311462,336.496918 695.965393,344.217010 671.609314,339.942810 
	C666.438293,339.035309 661.397705,337.384277 655.692627,335.920776 
	C656.480774,337.252075 656.870422,338.127686 657.447937,338.853943 
	C672.434570,357.702881 691.058472,371.546082 714.015076,379.098145 
	C748.384216,390.404572 782.961121,387.744141 818.371399,379.920349 
M471.204712,306.763733 
	C469.560181,307.016083 467.908020,307.227020 466.272186,307.526855 
	C425.944489,314.919067 388.355865,329.820709 352.375061,349.115936 
	C349.961121,350.410461 347.628693,351.856903 345.258331,353.232666 
	C349.690399,353.467438 353.763672,352.869781 357.853607,352.425079 
	C381.727844,349.829041 405.470886,349.659271 428.417084,358.029541 
	C453.823151,367.297150 470.301788,385.012299 477.224548,411.311615 
	C478.155762,414.849457 478.686066,418.492767 479.494049,422.549316 
	C480.895721,420.736969 481.914001,419.431030 482.921112,418.116577 
	C497.468719,399.129486 513.208191,381.265564 532.953674,367.473145 
	C551.333618,354.634613 571.381836,346.855133 594.321533,350.020813 
	C600.837341,350.920013 607.210327,352.854462 613.838562,354.357178 
	C613.456787,353.696655 613.147217,352.975739 612.679504,352.378693 
	C597.386047,332.856354 578.220093,318.691437 554.549683,311.017242 
	C527.480164,302.241058 499.869690,302.230682 471.204712,306.763733 
M689.824280,263.185059 
	C689.538696,264.313568 689.241882,265.439331 688.969299,266.570923 
	C684.074524,286.888916 674.037292,303.872131 656.559753,315.866333 
	C652.271606,318.809143 647.541138,321.107422 642.473572,324.011780 
	C657.120056,326.281677 671.173889,326.064850 685.143677,323.311615 
	C719.195984,316.600433 745.039368,296.735291 766.821350,271.030609 
	C791.774170,241.584076 808.659424,207.456055 822.155884,171.577560 
	C826.675964,159.561386 830.352417,147.227859 834.414490,135.039398 
	C832.284729,135.886673 831.311707,137.204773 830.323242,138.511276 
	C816.466675,156.826294 801.224731,173.794403 781.169556,185.519043 
	C753.558105,201.661224 725.579834,203.418243 697.573669,186.237961 
	C695.131775,184.740005 692.811340,183.044159 689.824036,181.028336 
	C693.340149,208.734695 695.599609,235.555557 689.824280,263.185059 
M1094.623291,691.500122 
	C1094.623291,681.198120 1094.623291,670.896118 1094.623291,660.594177 
	C1109.979004,682.777344 1124.217407,705.045410 1138.528931,727.266357 
	C1139.448486,728.694092 1140.895752,730.779358 1142.161255,730.825867 
	C1150.749512,731.141235 1159.354858,730.990723 1167.719116,730.990723 
	C1167.719116,691.329712 1167.719116,652.286499 1167.719116,613.403198 
	C1158.554199,613.403198 1149.813599,613.403198 1140.600586,613.403198 
	C1140.600586,637.075745 1140.600586,660.395264 1140.600586,684.855103 
	C1138.932861,682.301880 1137.925049,680.785522 1136.943848,679.252258 
	C1123.581055,658.372253 1110.242065,637.477112 1096.817383,616.637024 
	C1095.914307,615.235168 1094.405640,613.268372 1093.119873,613.222717 
	C1084.545654,612.918091 1075.955322,613.064636 1067.378662,613.064636 
	C1067.378662,652.709045 1067.378662,691.630859 1067.378662,730.702209 
	C1076.497070,730.702209 1085.377441,730.702209 1094.623291,730.702209 
	C1094.623291,717.769348 1094.623291,705.134766 1094.623291,691.500122 
M1024.014526,615.304138 
	C1004.936523,610.870117 985.647156,614.077698 966.367249,612.921265 
	C966.367249,652.639954 966.367249,691.567261 966.367249,730.719604 
	C975.475037,730.719604 984.355530,730.719604 993.932007,730.719604 
	C993.932007,715.993347 993.932007,701.541321 993.932007,685.919312 
	C1003.624634,698.466309 1012.912720,709.620850 1021.165588,721.494934 
	C1026.208130,728.750183 1031.674438,732.323792 1040.770874,731.188660 
	C1048.025635,730.283325 1055.483765,731.005859 1063.855835,731.005859 
	C1049.941162,714.266479 1036.812744,698.473083 1023.417053,682.358215 
	C1040.341187,675.691467 1047.628174,663.451355 1046.928223,646.213379 
	C1046.315186,631.119202 1038.971313,620.866150 1024.014526,615.304138 
M842.044556,729.916199 
	C842.484619,730.273621 842.922302,730.939331 843.365173,730.942810 
	C851.859985,731.009766 860.358337,731.105530 868.847229,730.874084 
	C869.954773,730.843872 871.511108,729.251953 872.010559,728.034973 
	C874.279236,722.507263 876.416565,716.910278 878.246521,711.224182 
	C879.186340,708.303772 880.726013,707.490784 883.670959,707.528320 
	C895.828979,707.683350 907.991394,707.688660 920.149170,707.522827 
	C923.002625,707.483887 924.219177,708.506287 925.109680,711.093567 
	C927.412903,717.785095 930.009583,724.375610 932.423889,730.832275 
	C942.388611,730.832275 951.851746,730.832275 961.895142,730.832275 
	C957.858521,720.810608 953.963989,711.133545 950.063416,701.458984 
	C938.698486,673.271179 927.367981,645.069275 915.867981,616.936707 
	C915.218445,615.347778 913.221741,613.295471 911.763123,613.221802 
	C904.299255,612.845459 896.806213,613.047791 889.097046,613.047791 
	C873.435303,651.805725 857.820374,690.447754 842.044556,729.916199 
M375.991699,731.005066 
	C377.107666,730.934387 378.223633,730.863647 379.528473,730.781006 
	C379.322723,729.890015 379.258484,729.223267 379.018311,728.627380 
	C363.874237,691.045776 348.744141,653.458374 333.442200,615.941101 
	C332.902527,614.618042 330.686096,613.264587 329.178925,613.177551 
	C323.534851,612.851868 317.837311,613.361206 312.205750,612.941406 
	C308.167145,612.640320 306.483917,614.131531 305.030365,617.778198 
	C290.642303,653.874329 276.050201,689.889099 261.525177,725.930664 
	C260.920685,727.430481 260.408783,728.967651 259.665985,731.001587 
	C269.170288,731.001587 278.123474,731.085449 287.070251,730.884521 
	C288.073181,730.862061 289.501129,729.411865 289.945953,728.307190 
	C292.240051,722.610229 294.395905,716.849731 296.351593,711.027954 
	C297.233459,708.402771 298.572540,707.486938 301.389618,707.523926 
	C313.712555,707.685425 326.039429,707.660522 338.363251,707.539307 
	C340.945190,707.513977 342.194489,708.349243 343.038025,710.815979 
	C345.337646,717.540833 347.922363,724.168152 350.457520,731.005066 
	C358.799896,731.005066 366.949371,731.005066 375.991699,731.005066 
M554.661011,695.035217 
	C554.769043,693.540100 554.970093,692.045105 554.971252,690.549927 
	C554.991638,665.385925 554.989929,640.221863 554.971130,615.057861 
	C554.970642,614.450317 554.716980,613.842834 554.606384,613.347351 
	C545.585876,613.347351 536.833313,613.347351 527.726990,613.347351 
	C527.726990,615.450073 527.726990,617.258240 527.726990,619.066406 
	C527.726929,638.731018 527.869141,658.397339 527.638611,678.059265 
	C527.570801,683.839722 527.050232,689.758240 525.658264,695.344666 
	C523.780090,702.882446 517.904114,706.153320 508.619965,706.089966 
	C499.623169,706.028564 494.043518,702.763733 492.148834,695.291443 
	C490.816010,690.035034 490.231720,684.468628 490.171753,679.031128 
	C489.949402,658.869019 490.082916,638.702942 490.082764,618.538391 
	C490.082764,616.789917 490.082794,615.041504 490.082794,613.381958 
	C480.563782,613.381958 471.819641,613.381958 463.177032,613.381958 
	C463.177032,641.031006 462.734039,668.358459 463.338348,695.662659 
	C463.718658,712.847473 473.326569,725.711060 488.881378,729.994507 
	C497.219421,732.290649 506.325562,733.030701 515.000122,732.630798 
	C537.304077,731.602539 552.402283,719.860291 554.661011,695.035217 
M219.645233,661.059692 
	C216.122787,670.136658 212.600342,679.213623 208.774384,689.072693 
	C207.891907,686.921143 207.373093,685.722961 206.905029,684.505188 
	C198.266861,662.030273 189.668808,639.539734 180.927734,617.104919 
	C180.319824,615.544617 178.697693,613.273376 177.482101,613.231689 
	C168.067490,612.908875 158.636856,613.053650 148.765854,613.053650 
	C149.308060,614.678101 149.596863,615.773376 150.030151,616.808167 
	C165.487564,653.724609 180.996994,690.619446 196.352173,727.578369 
	C197.538574,730.433960 199.086761,731.198547 201.930298,731.059265 
	C206.249969,730.847534 210.607040,730.751770 214.911652,731.082642 
	C218.439270,731.353760 220.036453,730.078064 221.394577,726.810669 
	C236.437256,690.621521 251.666687,654.510071 266.821014,618.367249 
	C267.485229,616.783081 267.911530,615.099182 268.584198,613.048401 
	C259.470795,613.048401 250.987244,613.218689 242.516510,612.963623 
	C239.186111,612.863342 237.584259,613.765686 236.387253,617.032715 
	C231.075439,631.530701 225.434387,645.907959 219.645233,661.059692 
M772.143250,717.489807 
	C772.143250,721.916809 772.143250,726.343872 772.143250,730.785522 
	C795.051575,730.785522 817.301697,730.785522 839.698364,730.785522 
	C839.698364,722.843872 839.698364,715.122864 839.698364,706.814697 
	C826.230347,706.814697 813.029907,706.814697 799.842773,706.814697 
	C799.842773,698.952820 799.842773,691.682922 799.842773,683.950867 
	C812.625183,683.950867 825.198669,683.950867 837.904785,683.950867 
	C837.904785,675.758911 837.904785,668.033386 837.904785,659.831177 
	C825.088623,659.831177 812.516785,659.831177 799.873047,659.831177 
	C799.873047,652.091309 799.873047,644.832275 799.873047,637.013550 
	C813.319397,637.013550 826.529175,637.013550 839.606506,637.013550 
	C839.606506,628.722839 839.606506,621.000488 839.606506,613.370605 
	C817.007446,613.370605 794.779236,613.370605 772.143250,613.370605 
	C772.143250,647.958862 772.143250,682.226318 772.143250,717.489807 
M633.324341,613.048157 
	C612.406311,613.048157 591.488342,613.048157 570.465210,613.048157 
	C570.465210,652.694824 570.465210,691.719177 570.465210,730.790771 
	C593.038818,730.790771 615.289856,730.790771 637.702759,730.790771 
	C637.702759,722.854187 637.702759,715.133057 637.702759,706.824219 
	C624.237366,706.824219 611.034363,706.824219 597.839355,706.824219 
	C597.839355,698.960999 597.839355,691.689392 597.839355,683.954956 
	C610.619324,683.954956 623.193542,683.954956 635.906128,683.954956 
	C635.906128,675.762146 635.906128,668.036316 635.906128,659.832642 
	C623.090820,659.832642 610.518188,659.832642 597.873352,659.832642 
	C597.873352,652.091492 597.873352,644.832153 597.873352,637.011902 
	C611.320740,637.011902 624.531128,637.011902 637.974548,637.011902 
	C637.974548,629.644531 637.840637,622.834595 638.035034,616.034058 
	C638.123047,612.955750 636.445557,612.888245 633.324341,613.048157 
M718.629883,623.542847 
	C718.629883,620.121582 718.629883,616.700256 718.629883,613.342712 
	C709.088806,613.342712 700.338562,613.342712 691.428345,613.342712 
	C691.428345,652.652466 691.428345,691.663086 691.428345,730.665039 
	C714.080322,730.665039 736.440674,730.665039 758.586060,730.665039 
	C758.586060,722.593079 758.586060,714.868103 758.586060,706.766907 
	C745.104309,706.766907 732.012573,706.766907 718.629761,706.766907 
	C718.629761,679.091675 718.629761,651.811707 718.629883,623.542847 
M425.506836,706.960327 
	C421.047974,706.960327 416.589142,706.960327 411.581360,706.960327 
	C411.581360,675.497803 411.581360,644.470215 411.581360,613.434082 
	C402.148376,613.434082 393.283173,613.434082 384.515747,613.434082 
	C384.515747,652.830078 384.515747,691.834961 384.515747,730.755981 
	C407.136017,730.755981 429.378296,730.755981 451.675201,730.755981 
	C451.675201,722.780945 451.675201,715.060669 451.675201,706.960327 
	C443.085083,706.960327 434.794525,706.960327 425.506836,706.960327 
M410.232178,222.912064 
	C412.641327,238.349884 428.284821,251.798264 444.022247,252.857635 
	C462.352295,254.091492 474.857025,239.798889 469.952271,222.131409 
	C465.855469,207.374222 455.340332,198.607468 440.437622,195.642258 
	C422.373444,192.048004 409.264923,203.663132 410.232178,222.912064 
M831.348694,279.886627 
	C821.972351,292.936157 823.965027,306.025452 836.697449,315.020844 
	C851.220642,325.281433 875.339111,321.136597 885.616699,306.614014 
	C893.257446,295.817291 892.002014,284.190948 882.230408,275.253235 
	C868.746521,262.920074 844.470337,264.883820 831.348694,279.886627 
M610.016418,120.731697 
	C609.576904,111.827873 605.763672,104.380898 599.769226,98.052872 
	C587.863342,85.484528 568.942200,88.212204 560.844238,103.539070 
	C553.156311,118.089828 555.674744,135.628342 567.131775,147.326538 
	C576.787354,157.185349 591.333008,157.423935 601.018494,147.679230 
	C608.144531,140.509613 610.575928,131.560181 610.016418,120.731697 
M781.186035,161.576340 
	C782.303772,158.630707 783.737610,155.763168 784.487793,152.726730 
	C789.289307,133.293488 775.126892,118.174347 755.663025,121.829651 
	C740.842407,124.612946 727.755127,140.173553 727.107361,155.649994 
	C726.448914,171.380203 738.693604,184.747665 755.935913,181.181732 
	C767.361389,178.818802 775.311035,172.185410 781.186035,161.576340 
M440.449310,383.224548 
	C428.443604,365.480682 401.383270,366.616211 387.763702,379.280334 
	C375.966522,390.249908 376.061188,405.103638 388.045959,415.834595 
	C402.256134,428.558136 429.551575,424.402557 440.035522,407.874146 
	C444.993561,400.057587 445.621002,392.024261 440.449310,383.224548 
M623.872864,800.469360 
	C627.857910,806.595276 631.996094,812.629150 635.760193,818.887878 
	C637.517334,821.809387 639.517151,822.739319 642.719116,821.594177 
	C642.719116,810.461609 642.719116,799.375610 642.719116,788.110352 
	C641.345215,788.182739 640.222595,788.241943 638.316284,788.342407 
	C638.316284,796.286987 638.316284,804.071594 638.316284,811.856201 
	C637.878235,811.954895 637.440125,812.053589 637.002075,812.152283 
	C632.396362,805.140015 627.663208,798.206665 623.246887,791.077148 
	C621.444763,788.167969 619.487000,787.288330 616.184387,788.730164 
	C616.184387,798.935852 616.219177,809.066162 616.165466,819.195984 
	C616.146667,822.734558 618.003479,822.222534 620.517029,821.518555 
	C620.517029,813.217590 620.517029,805.162354 620.517029,796.022461 
	C621.909668,797.858582 622.659241,798.846863 623.872864,800.469360 
M902.004578,814.276184 
	C902.512756,809.880554 903.837036,805.394470 903.362244,801.107727 
	C902.314697,791.648682 896.402649,787.248413 886.885559,787.751953 
	C876.928406,788.278748 871.949524,795.088745 872.734070,807.108032 
	C873.255798,815.101501 876.893250,820.290527 883.088562,821.879333 
	C891.063416,823.924500 897.086182,821.694885 902.004578,814.276184 
M746.000610,791.477051 
	C735.715332,783.700989 722.100891,787.853088 720.144165,799.544250 
	C719.550598,803.091064 719.633057,806.879639 720.137817,810.454102 
	C721.119568,817.406555 725.928162,821.576660 732.941711,822.254150 
	C741.210938,823.052917 747.048462,820.051758 749.367676,813.218872 
	C751.891418,805.783264 751.669556,798.505066 746.000610,791.477051 
M312.254242,793.901611 
	C308.992218,799.418396 309.116730,805.408508 310.289124,811.341736 
	C311.539642,817.670288 316.060211,821.453796 322.352997,822.198059 
	C335.159729,823.712646 342.826691,814.767517 340.530731,801.053589 
	C339.491455,794.845764 336.689697,789.782227 330.267578,788.315247 
	C323.739807,786.824036 317.270111,787.139282 312.254242,793.901611 
M654.721069,822.035706 
	C657.885681,821.989014 661.076660,822.186951 664.209900,821.849304 
	C673.259155,820.874451 678.140564,815.177246 678.396240,805.621033 
	C678.659729,795.771973 674.319092,789.647400 665.478882,788.440796 
	C660.953369,787.823059 656.273987,788.332520 651.170471,788.332520 
	C651.170471,798.180298 651.170105,807.800720 651.171082,817.421204 
	C651.171143,818.254272 650.870605,819.293396 651.256470,819.872498 
	C651.847351,820.759460 652.914062,821.329346 654.721069,822.035706 
M352.888794,819.755737 
	C359.964355,823.930725 367.251862,822.558228 374.661804,820.775635 
	C374.661804,815.166565 374.661804,809.752930 374.661804,804.372498 
	C363.806976,803.155212 362.971100,803.418701 363.618835,808.113403 
	C365.664734,808.113403 367.767548,808.113403 369.931793,808.113403 
	C369.931793,811.515808 369.931793,814.549438 369.931793,817.858154 
	C367.120819,817.998108 364.643677,818.335083 362.192505,818.200256 
	C356.612091,817.893494 353.259064,815.013611 351.917358,809.721680 
	C348.771179,797.312683 356.839386,789.380249 369.304749,792.769287 
	C372.379608,793.605347 374.060394,793.249207 373.918579,789.707336 
	C363.353668,785.750732 353.568726,787.869202 349.142792,794.985535 
	C344.684479,802.153992 346.123627,813.141846 352.888794,819.755737 
M820.056885,816.875427 
	C814.365784,812.419861 812.600098,804.643555 815.813232,798.185425 
	C818.532776,792.719360 824.485840,790.478027 831.714294,792.520752 
	C834.582764,793.331299 836.933716,794.120850 836.942871,789.837524 
	C827.872437,786.058411 818.190125,787.491028 813.418457,793.252319 
	C808.761902,798.874634 808.309570,810.141785 812.494812,816.257019 
	C816.948425,822.764404 826.327759,824.354736 837.638306,820.496277 
	C837.638306,815.100830 837.638306,809.693787 837.638306,804.275269 
	C833.598328,804.275269 829.854675,804.275269 826.053162,804.275269 
	C825.456299,810.938721 831.122009,806.373047 832.910278,808.632568 
	C832.910278,811.553711 832.910278,814.586853 832.910278,818.511963 
	C828.567078,818.032288 824.695984,817.604736 820.056885,816.875427 
M513.747131,813.731079 
	C512.472351,811.631348 511.197601,809.531677 509.825928,807.272339 
	C510.541138,806.751404 511.048126,806.365051 511.572113,806.003296 
	C515.458557,803.320068 516.616882,799.612061 515.636353,795.121521 
	C514.675598,790.721069 511.457764,788.755371 507.412262,788.406921 
	C503.185181,788.042847 498.902405,788.325623 494.446381,788.325623 
	C494.446381,799.622375 494.446381,810.658875 494.446381,821.660339 
	C497.559265,822.583740 499.108948,821.985901 498.908417,818.570923 
	C498.707703,815.152222 498.864349,811.712463 498.864349,808.732910 
	C503.676056,806.992126 506.067902,808.844910 507.710266,812.546814 
	C508.712341,814.805542 510.323639,816.790405 511.367981,819.034729 
	C512.828735,822.173767 514.945068,822.782532 518.272217,821.348816 
	C516.795837,818.889648 515.442810,816.635925 513.747131,813.731079 
M779.197144,793.639709 
	C773.968506,785.129761 765.775085,788.955566 758.378296,788.050781 
	C758.378296,799.612671 758.378296,810.543579 758.378296,821.920166 
	C759.944885,821.850525 761.278992,821.791260 763.000732,821.714722 
	C763.000732,816.986877 763.000732,812.711548 763.000732,808.575317 
	C767.342590,807.294006 770.012268,808.480713 771.629395,812.406677 
	C772.570557,814.691589 774.256470,816.661743 775.285828,818.920044 
	C776.726990,822.081970 778.852600,822.794250 782.277466,821.434631 
	C779.412476,816.593140 776.660156,811.942017 773.782715,807.079529 
	C779.180481,804.186707 780.992126,799.983398 779.197144,793.639709 
M867.408081,818.229980 
	C865.222839,814.575195 863.037598,810.920471 860.886963,807.323425 
	C866.497375,803.064880 868.049744,799.215210 866.395874,794.314209 
	C864.618347,789.046692 860.159058,788.339111 855.552185,788.098511 
	C852.270874,787.927185 848.973389,788.065308 845.458923,788.065308 
	C845.458923,799.600342 845.458923,810.667969 845.458923,821.654663 
	C848.708679,822.676880 850.095947,821.824219 849.907349,818.498779 
	C849.713928,815.088684 849.864441,811.658997 849.864441,808.683655 
	C854.863647,806.928772 857.140137,809.064880 858.783081,812.671875 
	C859.743896,814.781189 861.231201,816.651367 862.185425,818.763000 
	C863.594971,821.882324 865.718750,822.827698 869.137512,821.526733 
	C868.687195,820.596191 868.267334,819.728638 867.408081,818.229980 
M460.120789,800.512756 
	C460.120789,796.408752 460.120789,792.304749 460.120789,788.027954 
	C458.385498,788.143921 457.255554,788.219482 455.706360,788.323059 
	C455.706360,792.906677 455.706360,797.330627 455.706360,801.845459 
	C449.885406,801.845459 444.502411,801.845459 438.859680,801.845459 
	C438.859680,798.706604 438.865570,795.900085 438.858429,793.093506 
	C438.845184,787.892029 438.842010,787.892029 434.393433,788.768799 
	C434.393433,799.667542 434.393433,810.587280 434.393433,821.950562 
	C435.971405,821.858643 437.303436,821.781006 439.086792,821.677124 
	C439.086792,816.319092 439.086792,811.416992 439.086792,806.657898 
	C444.821472,806.657898 450.068451,806.657898 455.752747,806.657898 
	C455.752747,811.916199 455.752747,816.829346 455.752747,821.717773 
	C457.429504,821.717773 458.651978,821.717773 460.120789,821.717773 
	C460.120789,814.779419 460.120789,808.144470 460.120789,800.512756 
M980.608521,822.000793 
	C982.840088,822.320923 984.003723,821.666809 983.901978,819.099121 
	C983.738831,814.976868 983.858337,810.843384 983.858337,806.720215 
	C989.719543,806.720215 995.086670,806.720215 1000.727539,806.720215 
	C1000.727539,811.935486 1000.727539,816.732849 1000.727539,821.959290 
	C1002.360229,821.873474 1003.678101,821.804138 1004.908325,821.739502 
	C1004.908325,810.298157 1004.908325,799.353821 1004.908325,788.110535 
	C1003.465576,788.202942 1002.254456,788.280518 1000.568176,788.388489 
	C1000.568176,793.080933 1000.568176,797.477539 1000.568176,801.939941 
	C994.813721,801.939941 989.559326,801.939941 983.837708,801.939941 
	C983.837708,797.299561 983.837708,792.879944 983.837708,788.018616 
	C981.991943,788.192139 980.657837,788.317566 979.750549,788.402893 
	C979.750549,799.881409 979.750549,810.806152 980.608521,822.000793 
M583.519653,822.021484 
	C587.300415,822.616821 586.898743,819.232422 588.063965,817.298523 
	C589.268311,815.299683 590.229126,812.173096 591.949829,811.637024 
	C599.217712,809.372742 603.207153,811.500427 605.803406,818.559692 
	C606.950989,821.680054 608.428284,822.954285 611.796875,821.452515 
	C607.782104,811.126526 603.816284,800.767456 599.663391,790.484009 
	C599.233154,789.418518 597.638000,788.098938 596.677429,788.169983 
	C595.660278,788.245239 594.331299,789.667847 593.868591,790.800232 
	C589.982483,800.310364 586.242188,809.880493 582.540771,819.464539 
	C582.267151,820.173096 582.638733,821.130920 583.519653,822.021484 
M487.406769,790.471313 
	C486.840485,789.665588 486.295044,788.177917 485.704651,788.159851 
	C479.962494,787.984009 474.212799,788.054138 468.416138,788.054138 
	C468.416138,799.684448 468.416138,810.595825 468.416138,821.770264 
	C474.730164,821.770264 480.801758,821.770264 487.261261,821.770264 
	C487.200256,820.492493 487.143158,819.296570 487.065735,817.674683 
	C482.113953,817.674683 477.539917,817.674683 473.208862,817.674683 
	C473.208862,813.639099 473.208862,810.058105 473.208862,806.252808 
	C476.873138,806.252808 480.206512,806.422852 483.504547,806.155884 
	C484.585602,806.068359 485.574860,804.846436 486.606110,804.143188 
	C485.521637,803.487854 484.472565,802.350220 483.346069,802.267517 
	C479.941376,802.017639 476.506622,802.177246 473.245728,802.177246 
	C473.245728,798.434753 473.245728,795.379822 473.245728,792.546570 
	C478.176086,792.107239 482.708740,791.703369 487.406769,790.471313 
M398.960693,822.035034 
	C399.895752,821.014038 400.830780,819.993042 401.765839,818.972046 
	C401.410248,818.542725 401.054688,818.113403 400.699097,817.684082 
	C396.123352,817.684082 391.547638,817.684082 387.198700,817.684082 
	C387.198700,813.655640 387.198700,810.069580 387.198700,806.250916 
	C391.016571,806.250916 394.511169,806.392578 397.979950,806.155701 
	C398.896698,806.093079 399.733795,804.863403 400.607452,804.169678 
	C399.698242,803.505798 398.821564,802.329224 397.874054,802.269104 
	C394.296783,802.042114 390.696503,802.178040 387.231873,802.178040 
	C387.231873,798.457764 387.231873,795.403076 387.231873,792.112122 
	C390.402618,792.112122 393.210419,792.114319 396.018219,792.111633 
	C401.555634,792.106445 401.555634,792.105347 400.646698,788.447388 
	C394.514618,788.447388 388.455139,788.447388 382.447296,788.447388 
	C382.447296,799.764954 382.447296,810.674255 382.447296,822.035889 
	C387.831360,822.035889 392.946198,822.035889 398.960693,822.035034 
M539.588135,793.331848 
	C542.936829,793.127991 546.375610,792.362793 549.608459,792.881226 
	C552.716736,793.379639 553.471008,792.391174 553.626343,788.769653 
	C549.728821,788.491760 545.848083,787.910278 541.987976,788.024780 
	C538.060974,788.141235 534.831604,790.016418 533.924194,794.185913 
	C532.946655,798.677795 534.249573,802.507385 538.487854,804.782776 
	C540.966736,806.113525 543.959106,806.659912 546.138062,808.322449 
	C547.857178,809.634277 549.885742,812.335327 549.573364,814.007874 
	C549.263794,815.666504 546.306885,817.742126 544.317017,817.974670 
	C540.814331,818.383972 537.164062,817.529236 531.768799,817.039917 
	C533.630432,819.250488 534.593079,821.488831 535.810364,821.637085 
	C539.724854,822.114014 543.819824,822.330566 547.681213,821.677734 
	C551.499329,821.032104 554.226135,818.279480 554.593933,814.124573 
	C554.962158,809.964661 553.482849,806.591248 549.442017,804.764893 
	C546.870789,803.602783 544.214294,802.614441 541.703674,801.336853 
	C538.640991,799.778259 537.174500,797.463013 539.588135,793.331848 
M701.865234,811.580139 
	C701.486633,808.941895 702.258301,807.544189 705.291016,807.843689 
	C707.761719,808.087646 710.326660,808.186157 712.748901,807.766479 
	C713.949646,807.558411 714.923157,806.038635 715.999451,805.112244 
	C715.686646,804.658264 715.373901,804.204224 715.061096,803.750244 
	C710.798401,803.750244 706.535706,803.750244 702.100708,803.750244 
	C702.100708,799.775940 702.100708,796.185425 702.100708,792.113953 
	C705.099915,792.113953 707.885620,792.114929 710.671326,792.113708 
	C716.215942,792.111328 716.215942,792.110840 715.842285,788.315430 
	C709.778687,788.315430 703.711731,788.315430 697.172791,788.315430 
	C697.172791,798.854309 697.070068,809.127380 697.324097,819.391602 
	C697.350891,820.475403 699.474670,821.507385 700.625610,822.563354 
	C701.038757,822.192383 701.451843,821.821411 701.864990,821.450378 
	C701.864990,818.480347 701.864990,815.510254 701.865234,811.580139 
M566.701172,793.527588 
	C566.701172,802.934570 566.701172,812.341492 566.701172,822.020996 
	C568.490540,821.901428 569.699097,821.820618 571.365112,821.709290 
	C571.365112,811.620728 571.365112,801.914734 571.365112,792.256409 
	C581.418213,791.785034 581.418213,791.785034 581.174927,788.070618 
	C573.765625,788.070618 566.320312,787.958130 558.885986,788.193787 
	C557.791199,788.228516 556.748779,789.913757 554.733032,791.655273 
	C559.881165,792.058044 563.149292,792.313782 566.701172,793.527588 
M406.888672,788.070374 
	C405.819580,788.989746 404.750458,789.909119 403.681335,790.828552 
	C403.990814,791.274902 404.300262,791.721252 404.609741,792.167603 
	C407.877686,792.167603 411.145660,792.167603 414.843140,792.167603 
	C414.843140,802.299561 414.843140,812.029968 414.843140,822.026978 
	C416.515533,821.900146 417.717407,821.809021 419.208862,821.695862 
	C419.208862,811.722168 419.208862,802.137146 419.208862,792.607361 
	C429.386841,791.148499 429.386841,791.148499 429.135986,788.069153 
	C422.056702,788.069153 414.940521,788.069153 406.888672,788.070374 
M307.538147,791.339111 
	C308.181885,788.995300 307.415009,787.992920 304.865601,788.034180 
	C298.216644,788.141724 291.560120,787.945984 284.918610,788.192993 
	C283.809875,788.234131 282.761139,789.889465 281.684692,790.798889 
	C281.986938,791.250977 282.289185,791.703003 282.591461,792.155029 
	C285.863831,792.155029 289.136200,792.155029 292.841644,792.155029 
	C292.841644,802.289917 292.841644,812.026245 292.841644,822.029724 
	C294.509460,821.900635 295.716187,821.807251 297.216400,821.691101 
	C297.216400,811.714417 297.216400,802.124939 297.216400,791.896545 
	C300.645447,791.896545 303.754333,791.896545 307.538147,791.339111 
z"/>
<path fill="#F14740" opacity="1.000000" stroke="none" 
	d="
M940.888550,433.875397 
	C898.763489,470.804413 850.241760,494.038574 796.062378,506.031036 
	C756.487549,514.790833 716.307007,517.046387 675.973145,517.762085 
	C645.656677,518.300110 615.319031,518.089539 585.020691,519.103638 
	C537.022949,520.710083 490.786591,529.775330 448.980164,554.982544 
	C438.874176,561.075867 429.342651,568.120789 419.529907,574.702759 
	C418.089600,575.668884 416.554108,576.493042 414.119843,577.945496 
	C426.455994,557.271545 453.283173,532.662048 477.612000,518.750916 
	C507.409943,501.712555 539.729919,492.684662 573.460510,488.002777 
	C612.850037,482.535431 652.539673,482.863556 692.161499,482.028229 
	C732.312683,481.181702 772.392212,479.658417 812.053833,472.602783 
	C857.615051,464.497620 900.711792,449.205322 941.917969,428.340363 
	C943.744812,427.415314 945.643188,426.631561 947.508240,425.781982 
	C947.757751,426.160919 948.007263,426.539856 948.256775,426.918793 
	C945.889771,429.159332 943.522705,431.399872 940.888550,433.875397 
z"/>
<path fill="#F14740" opacity="1.000000" stroke="none" 
	d="
M394.418182,520.499023 
	C411.731964,495.337677 433.964386,475.628357 460.614258,460.828583 
	C489.250122,444.925964 520.265320,436.598389 552.454956,431.993073 
	C586.528259,427.118256 620.878540,427.230255 655.167297,426.123199 
	C684.468811,425.177124 713.819702,424.769012 743.045715,422.680267 
	C805.035950,418.249847 863.789795,401.587311 919.237488,373.419922 
	C921.756592,372.140198 924.332703,370.972687 927.364624,369.801361 
	C927.846924,369.849823 928.126160,370.118378 928.126160,370.118378 
	C914.597168,381.092438 901.699585,392.978516 887.418762,402.866760 
	C847.179138,430.729248 801.933472,446.105988 753.930359,454.119873 
	C721.142944,459.593597 688.069153,461.080902 654.928528,461.683685 
	C624.122437,462.243958 593.292358,462.019806 562.508057,463.122864 
	C514.320801,464.849579 468.062378,474.505127 426.365570,500.212036 
	C415.898560,506.665192 406.014130,514.063354 395.342712,520.933838 
	C394.688416,520.726746 394.553284,520.612854 394.418182,520.499023 
z"/>
<path fill="#48A04C" opacity="1.000000" stroke="none" 
	d="
M588.519653,242.489105 
	C609.780334,270.759308 618.779785,301.914856 613.575806,337.905090 
	C611.918762,334.739594 610.761597,332.419495 609.508606,330.152283 
	C596.823975,307.200104 576.478577,295.294281 551.545349,290.062225 
	C529.770630,285.492920 507.849915,286.260834 485.904877,288.433472 
	C480.982849,288.920776 476.077118,289.572784 470.496582,290.227234 
	C471.185425,288.932068 471.468811,288.204529 471.912384,287.593262 
	C490.101379,262.530182 492.381104,235.884003 479.433502,207.970078 
	C469.437195,186.418869 452.953339,170.255249 434.732361,155.655350 
	C431.275604,152.885559 427.753662,150.197083 424.745575,146.430115 
	C433.738342,149.264145 442.824432,151.834503 451.707642,154.978180 
	C488.591370,168.031006 524.092224,184.006836 554.580200,208.993622 
	C566.731140,218.952011 577.109375,231.073242 588.519653,242.489105 
z"/>
<path fill="#F98D25" opacity="1.000000" stroke="none" 
	d="
M817.958740,379.983643 
	C782.961121,387.744141 748.384216,390.404572 714.015076,379.098145 
	C691.058472,371.546082 672.434570,357.702881 657.447937,338.853943 
	C656.870422,338.127686 656.480774,337.252075 655.692627,335.920776 
	C661.397705,337.384277 666.438293,339.035309 671.609314,339.942810 
	C695.965393,344.217010 717.311462,336.496918 736.886414,322.734100 
	C756.170349,309.175842 771.615417,291.719147 785.936035,273.196259 
	C787.144958,271.632507 788.329529,270.049866 790.154846,267.647675 
	C790.694214,271.013153 790.947021,273.542786 791.516357,275.999084 
	C799.170837,309.024323 820.560303,328.127655 852.807495,335.909393 
	C873.495300,340.901672 894.422791,340.088562 915.351196,337.559082 
	C918.480286,337.180878 921.594788,336.681305 924.841675,336.568176 
	C891.421814,356.082977 855.988159,370.663483 817.958740,379.983643 
z"/>
<path fill="#1FACBF" opacity="1.000000" stroke="none" 
	d="
M471.631317,306.666443 
	C499.869690,302.230682 527.480164,302.241058 554.549683,311.017242 
	C578.220093,318.691437 597.386047,332.856354 612.679504,352.378693 
	C613.147217,352.975739 613.456787,353.696655 613.838562,354.357178 
	C607.210327,352.854462 600.837341,350.920013 594.321533,350.020813 
	C571.381836,346.855133 551.333618,354.634613 532.953674,367.473145 
	C513.208191,381.265564 497.468719,399.129486 482.921112,418.116577 
	C481.914001,419.431030 480.895721,420.736969 479.494049,422.549316 
	C478.686066,418.492767 478.155762,414.849457 477.224548,411.311615 
	C470.301788,385.012299 453.823151,367.297150 428.417084,358.029541 
	C405.470886,349.659271 381.727844,349.829041 357.853607,352.425079 
	C353.763672,352.869781 349.690399,353.467438 345.258331,353.232666 
	C347.628693,351.856903 349.961121,350.410461 352.375061,349.115936 
	C388.355865,329.820709 425.944489,314.919067 466.272186,307.526855 
	C467.908020,307.227020 469.560181,307.016083 471.631317,306.666443 
z"/>
<path fill="#FCD749" opacity="1.000000" stroke="none" 
	d="
M689.896851,262.772125 
	C695.599609,235.555557 693.340149,208.734695 689.824036,181.028336 
	C692.811340,183.044159 695.131775,184.740005 697.573669,186.237961 
	C725.579834,203.418243 753.558105,201.661224 781.169556,185.519043 
	C801.224731,173.794403 816.466675,156.826294 830.323242,138.511276 
	C831.311707,137.204773 832.284729,135.886673 834.414490,135.039398 
	C830.352417,147.227859 826.675964,159.561386 822.155884,171.577560 
	C808.659424,207.456055 791.774170,241.584076 766.821350,271.030609 
	C745.039368,296.735291 719.195984,316.600433 685.143677,323.311615 
	C671.173889,326.064850 657.120056,326.281677 642.473572,324.011780 
	C647.541138,321.107422 652.271606,318.809143 656.559753,315.866333 
	C674.037292,303.872131 684.074524,286.888916 688.969299,266.570923 
	C689.241882,265.439331 689.538696,264.313568 689.896851,262.772125 
z"/>
<path fill="#C0C843" opacity="1.000000" stroke="none" 
	d="
M625.819092,322.846069 
	C627.234558,316.706360 629.087463,310.629852 629.985901,304.415405 
	C633.034302,283.329651 626.229065,264.690887 614.885742,247.383774 
	C600.902405,226.048599 582.201843,209.329620 562.104309,194.015915 
	C560.661377,192.916443 559.215515,191.820908 556.927429,190.082672 
	C560.580017,189.483200 563.427734,189.181320 566.195496,188.536255 
	C597.964417,181.132065 616.701050,160.583679 624.900024,129.731125 
	C630.955933,106.942886 629.764343,83.897850 626.522644,60.846287 
	C626.383850,59.859276 626.198364,58.878510 626.075562,57.889744 
	C626.035828,57.569477 626.127380,57.232903 626.235291,56.107021 
	C627.331970,57.708645 628.184692,58.759956 628.830811,59.925762 
	C649.115967,96.527992 664.801392,134.892670 672.378845,176.215897 
	C678.030334,207.036758 678.754150,237.773987 668.082947,267.861359 
	C660.074524,290.440979 646.498657,308.986908 626.643921,323.168427 
	C626.162537,323.138672 625.819092,322.846069 625.819092,322.846069 
z"/>
<path fill="#1B3046" opacity="1.000000" stroke="none" 
	d="
M1094.623291,692.000183 
	C1094.623291,705.134766 1094.623291,717.769348 1094.623291,730.702209 
	C1085.377441,730.702209 1076.497070,730.702209 1067.378662,730.702209 
	C1067.378662,691.630859 1067.378662,652.709045 1067.378662,613.064636 
	C1075.955322,613.064636 1084.545654,612.918091 1093.119873,613.222717 
	C1094.405640,613.268372 1095.914307,615.235168 1096.817383,616.637024 
	C1110.242065,637.477112 1123.581055,658.372253 1136.943848,679.252258 
	C1137.925049,680.785522 1138.932861,682.301880 1140.600586,684.855103 
	C1140.600586,660.395264 1140.600586,637.075745 1140.600586,613.403198 
	C1149.813599,613.403198 1158.554199,613.403198 1167.719116,613.403198 
	C1167.719116,652.286499 1167.719116,691.329712 1167.719116,730.990723 
	C1159.354858,730.990723 1150.749512,731.141235 1142.161255,730.825867 
	C1140.895752,730.779358 1139.448486,728.694092 1138.528931,727.266357 
	C1124.217407,705.045410 1109.979004,682.777344 1094.623291,660.594177 
	C1094.623291,670.896118 1094.623291,681.198120 1094.623291,692.000183 
z"/>
<path fill="#1C3146" opacity="1.000000" stroke="none" 
	d="
M1024.370117,615.477905 
	C1038.971313,620.866150 1046.315186,631.119202 1046.928223,646.213379 
	C1047.628174,663.451355 1040.341187,675.691467 1023.417053,682.358215 
	C1036.812744,698.473083 1049.941162,714.266479 1063.855835,731.005859 
	C1055.483765,731.005859 1048.025635,730.283325 1040.770874,731.188660 
	C1031.674438,732.323792 1026.208130,728.750183 1021.165588,721.494934 
	C1012.912720,709.620850 1003.624634,698.466309 993.932007,685.919312 
	C993.932007,701.541321 993.932007,715.993347 993.932007,730.719604 
	C984.355530,730.719604 975.475037,730.719604 966.367249,730.719604 
	C966.367249,691.567261 966.367249,652.639954 966.367249,612.921265 
	C985.647156,614.077698 1004.936523,610.870117 1024.370117,615.477905 
M1016.861877,656.946533 
	C1021.497192,642.291138 1013.415710,632.675232 993.938721,635.618652 
	C993.938721,645.350220 993.938721,655.060242 993.938721,665.170044 
	C1002.366211,664.571472 1011.114990,666.377869 1016.861877,656.946533 
z"/>
<path fill="#1C3046" opacity="1.000000" stroke="none" 
	d="
M842.125000,729.503052 
	C857.820374,690.447754 873.435303,651.805725 889.097046,613.047791 
	C896.806213,613.047791 904.299255,612.845459 911.763123,613.221802 
	C913.221741,613.295471 915.218445,615.347778 915.867981,616.936707 
	C927.367981,645.069275 938.698486,673.271179 950.063416,701.458984 
	C953.963989,711.133545 957.858521,720.810608 961.895142,730.832275 
	C951.851746,730.832275 942.388611,730.832275 932.423889,730.832275 
	C930.009583,724.375610 927.412903,717.785095 925.109680,711.093567 
	C924.219177,708.506287 923.002625,707.483887 920.149170,707.522827 
	C907.991394,707.688660 895.828979,707.683350 883.670959,707.528320 
	C880.726013,707.490784 879.186340,708.303772 878.246521,711.224182 
	C876.416565,716.910278 874.279236,722.507263 872.010559,728.034973 
	C871.511108,729.251953 869.954773,730.843872 868.847229,730.874084 
	C860.358337,731.105530 851.859985,731.009766 843.365173,730.942810 
	C842.922302,730.939331 842.484619,730.273621 842.125000,729.503052 
M909.039307,669.418335 
	C906.701904,663.372253 904.364441,657.326111 901.688416,650.404297 
	C897.300232,661.936157 893.334106,672.358948 889.252441,683.085388 
	C897.942505,683.085388 905.915833,683.085388 914.277039,683.085388 
	C912.488037,678.458801 910.883362,674.308777 909.039307,669.418335 
z"/>
<path fill="#1C3046" opacity="1.000000" stroke="none" 
	d="
M375.545258,731.005066 
	C366.949371,731.005066 358.799896,731.005066 350.457520,731.005066 
	C347.922363,724.168152 345.337646,717.540833 343.038025,710.815979 
	C342.194489,708.349243 340.945190,707.513977 338.363251,707.539307 
	C326.039429,707.660522 313.712555,707.685425 301.389618,707.523926 
	C298.572540,707.486938 297.233459,708.402771 296.351593,711.027954 
	C294.395905,716.849731 292.240051,722.610229 289.945953,728.307190 
	C289.501129,729.411865 288.073181,730.862061 287.070251,730.884521 
	C278.123474,731.085449 269.170288,731.001587 259.665985,731.001587 
	C260.408783,728.967651 260.920685,727.430481 261.525177,725.930664 
	C276.050201,689.889099 290.642303,653.874329 305.030365,617.778198 
	C306.483917,614.131531 308.167145,612.640320 312.205750,612.941406 
	C317.837311,613.361206 323.534851,612.851868 329.178925,613.177551 
	C330.686096,613.264587 332.902527,614.618042 333.442200,615.941101 
	C348.744141,653.458374 363.874237,691.045776 379.018311,728.627380 
	C379.258484,729.223267 379.322723,729.890015 379.528473,730.781006 
	C378.223633,730.863647 377.107666,730.934387 375.545258,731.005066 
M325.295868,683.481628 
	C327.514099,683.481628 329.732330,683.481628 332.457825,683.481628 
	C328.072510,672.119019 324.042603,661.677307 319.690735,650.401306 
	C315.322845,661.880859 311.344482,672.336670 307.372406,682.776001 
	C308.268799,683.153198 308.562134,683.382507 308.857544,683.385315 
	C314.019897,683.433838 319.182495,683.454590 325.295868,683.481628 
z"/>
<path fill="#1A2F45" opacity="1.000000" stroke="none" 
	d="
M554.590515,695.484375 
	C552.402283,719.860291 537.304077,731.602539 515.000122,732.630798 
	C506.325562,733.030701 497.219421,732.290649 488.881378,729.994507 
	C473.326569,725.711060 463.718658,712.847473 463.338348,695.662659 
	C462.734039,668.358459 463.177032,641.031006 463.177032,613.381958 
	C471.819641,613.381958 480.563782,613.381958 490.082794,613.381958 
	C490.082794,615.041504 490.082764,616.789917 490.082764,618.538391 
	C490.082916,638.702942 489.949402,658.869019 490.171753,679.031128 
	C490.231720,684.468628 490.816010,690.035034 492.148834,695.291443 
	C494.043518,702.763733 499.623169,706.028564 508.619965,706.089966 
	C517.904114,706.153320 523.780090,702.882446 525.658264,695.344666 
	C527.050232,689.758240 527.570801,683.839722 527.638611,678.059265 
	C527.869141,658.397339 527.726929,638.731018 527.726990,619.066406 
	C527.726990,617.258240 527.726990,615.450073 527.726990,613.347351 
	C536.833313,613.347351 545.585876,613.347351 554.606384,613.347351 
	C554.716980,613.842834 554.970642,614.450317 554.971130,615.057861 
	C554.989929,640.221863 554.991638,665.385925 554.971252,690.549927 
	C554.970093,692.045105 554.769043,693.540100 554.590515,695.484375 
z"/>
<path fill="#1B3046" opacity="1.000000" stroke="none" 
	d="
M219.778824,660.694336 
	C225.434387,645.907959 231.075439,631.530701 236.387253,617.032715 
	C237.584259,613.765686 239.186111,612.863342 242.516510,612.963623 
	C250.987244,613.218689 259.470795,613.048401 268.584198,613.048401 
	C267.911530,615.099182 267.485229,616.783081 266.821014,618.367249 
	C251.666687,654.510071 236.437256,690.621521 221.394577,726.810669 
	C220.036453,730.078064 218.439270,731.353760 214.911652,731.082642 
	C210.607040,730.751770 206.249969,730.847534 201.930298,731.059265 
	C199.086761,731.198547 197.538574,730.433960 196.352173,727.578369 
	C180.996994,690.619446 165.487564,653.724609 150.030151,616.808167 
	C149.596863,615.773376 149.308060,614.678101 148.765854,613.053650 
	C158.636856,613.053650 168.067490,612.908875 177.482101,613.231689 
	C178.697693,613.273376 180.319824,615.544617 180.927734,617.104919 
	C189.668808,639.539734 198.266861,662.030273 206.905029,684.505188 
	C207.373093,685.722961 207.891907,686.921143 208.774384,689.072693 
	C212.600342,679.213623 216.122787,670.136658 219.778824,660.694336 
z"/>
<path fill="#1B3046" opacity="1.000000" stroke="none" 
	d="
M772.143250,716.991821 
	C772.143250,682.226318 772.143250,647.958862 772.143250,613.370605 
	C794.779236,613.370605 817.007446,613.370605 839.606506,613.370605 
	C839.606506,621.000488 839.606506,628.722839 839.606506,637.013550 
	C826.529175,637.013550 813.319397,637.013550 799.873047,637.013550 
	C799.873047,644.832275 799.873047,652.091309 799.873047,659.831177 
	C812.516785,659.831177 825.088623,659.831177 837.904785,659.831177 
	C837.904785,668.033386 837.904785,675.758911 837.904785,683.950867 
	C825.198669,683.950867 812.625183,683.950867 799.842773,683.950867 
	C799.842773,691.682922 799.842773,698.952820 799.842773,706.814697 
	C813.029907,706.814697 826.230347,706.814697 839.698364,706.814697 
	C839.698364,715.122864 839.698364,722.843872 839.698364,730.785522 
	C817.301697,730.785522 795.051575,730.785522 772.143250,730.785522 
	C772.143250,726.343872 772.143250,721.916809 772.143250,716.991821 
z"/>
<path fill="#1B3046" opacity="1.000000" stroke="none" 
	d="
M633.802917,613.048218 
	C636.445557,612.888245 638.123047,612.955750 638.035034,616.034058 
	C637.840637,622.834595 637.974548,629.644531 637.974548,637.011902 
	C624.531128,637.011902 611.320740,637.011902 597.873352,637.011902 
	C597.873352,644.832153 597.873352,652.091492 597.873352,659.832642 
	C610.518188,659.832642 623.090820,659.832642 635.906128,659.832642 
	C635.906128,668.036316 635.906128,675.762146 635.906128,683.954956 
	C623.193542,683.954956 610.619324,683.954956 597.839355,683.954956 
	C597.839355,691.689392 597.839355,698.960999 597.839355,706.824219 
	C611.034363,706.824219 624.237366,706.824219 637.702759,706.824219 
	C637.702759,715.133057 637.702759,722.854187 637.702759,730.790771 
	C615.289856,730.790771 593.038818,730.790771 570.465210,730.790771 
	C570.465210,691.719177 570.465210,652.694824 570.465210,613.048157 
	C591.488342,613.048157 612.406311,613.048157 633.802917,613.048218 
z"/>
<path fill="#1D3247" opacity="1.000000" stroke="none" 
	d="
M718.629822,624.037292 
	C718.629761,651.811707 718.629761,679.091675 718.629761,706.766907 
	C732.012573,706.766907 745.104309,706.766907 758.586060,706.766907 
	C758.586060,714.868103 758.586060,722.593079 758.586060,730.665039 
	C736.440674,730.665039 714.080322,730.665039 691.428345,730.665039 
	C691.428345,691.663086 691.428345,652.652466 691.428345,613.342712 
	C700.338562,613.342712 709.088806,613.342712 718.629883,613.342712 
	C718.629883,616.700256 718.629883,620.121582 718.629822,624.037292 
z"/>
<path fill="#1D3247" opacity="1.000000" stroke="none" 
	d="
M426.005432,706.960327 
	C434.794525,706.960327 443.085083,706.960327 451.675201,706.960327 
	C451.675201,715.060669 451.675201,722.780945 451.675201,730.755981 
	C429.378296,730.755981 407.136017,730.755981 384.515747,730.755981 
	C384.515747,691.834961 384.515747,652.830078 384.515747,613.434082 
	C393.283173,613.434082 402.148376,613.434082 411.581360,613.434082 
	C411.581360,644.470215 411.581360,675.497803 411.581360,706.960327 
	C416.589142,706.960327 421.047974,706.960327 426.005432,706.960327 
z"/>
<path fill="#49A04D" opacity="1.000000" stroke="none" 
	d="
M410.165100,222.480255 
	C409.264923,203.663132 422.373444,192.048004 440.437622,195.642258 
	C455.340332,198.607468 465.855469,207.374222 469.952271,222.131409 
	C474.857025,239.798889 462.352295,254.091492 444.022247,252.857635 
	C428.284821,251.798264 412.641327,238.349884 410.165100,222.480255 
z"/>
<path fill="#F98D26" opacity="1.000000" stroke="none" 
	d="
M831.577515,279.609375 
	C844.470337,264.883820 868.746521,262.920074 882.230408,275.253235 
	C892.002014,284.190948 893.257446,295.817291 885.616699,306.614014 
	C875.339111,321.136597 851.220642,325.281433 836.697449,315.020844 
	C823.965027,306.025452 821.972351,292.936157 831.577515,279.609375 
z"/>
<path fill="#C1C844" opacity="1.000000" stroke="none" 
	d="
M610.041748,121.196091 
	C610.575928,131.560181 608.144531,140.509613 601.018494,147.679230 
	C591.333008,157.423935 576.787354,157.185349 567.131775,147.326538 
	C555.674744,135.628342 553.156311,118.089828 560.844238,103.539070 
	C568.942200,88.212204 587.863342,85.484528 599.769226,98.052872 
	C605.763672,104.380898 609.576904,111.827873 610.041748,121.196091 
z"/>
<path fill="#FCD749" opacity="1.000000" stroke="none" 
	d="
M781.031555,161.916611 
	C775.311035,172.185410 767.361389,178.818802 755.935913,181.181732 
	C738.693604,184.747665 726.448914,171.380203 727.107361,155.649994 
	C727.755127,140.173553 740.842407,124.612946 755.663025,121.829651 
	C775.126892,118.174347 789.289307,133.293488 784.487793,152.726730 
	C783.737610,155.763168 782.303772,158.630707 781.031555,161.916611 
z"/>
<path fill="#1FACBF" opacity="1.000000" stroke="none" 
	d="
M440.658295,383.531494 
	C445.621002,392.024261 444.993561,400.057587 440.035522,407.874146 
	C429.551575,424.402557 402.256134,428.558136 388.045959,415.834595 
	C376.061188,405.103638 375.966522,390.249908 387.763702,379.280334 
	C401.383270,366.616211 428.443604,365.480682 440.658295,383.531494 
z"/>
<path fill="#1F3349" opacity="1.000000" stroke="none" 
	d="
M925.982788,788.252625 
	C928.857056,787.403198 930.103699,788.724792 930.865173,791.430420 
	C932.924316,798.746399 935.206848,805.999451 937.603821,813.951233 
	C939.569763,806.132812 941.364258,798.946228 943.189636,791.767578 
	C943.717285,789.692322 944.072083,787.352600 947.589417,788.534668 
	C947.971741,789.618835 947.971802,790.267700 947.971802,790.916504 
	C945.361389,801.179382 942.751038,811.442322 940.201477,821.465881 
	C936.448486,823.024475 935.176758,821.388245 934.320618,818.271606 
	C932.258667,810.765442 929.915466,803.336548 927.476562,795.176941 
	C924.775085,804.363098 922.265015,812.898499 919.739136,821.487488 
	C916.611328,822.873108 914.995422,821.945190 914.155090,818.545837 
	C911.966431,809.692383 909.461426,800.917603 907.217163,792.077209 
	C906.806702,790.460449 905.327881,787.827515 909.702026,788.338989 
	C910.409851,788.790649 910.633240,788.926575 910.897827,788.994690 
	C913.119019,797.090271 915.340210,805.185852 917.617493,813.485901 
	C920.015442,805.452942 922.376526,797.543396 925.110962,789.235657 
	C925.713562,788.696411 925.879761,788.501404 925.982788,788.252625 
z"/>
<path fill="#263A4F" opacity="1.000000" stroke="none" 
	d="
M623.640869,800.152222 
	C622.659241,798.846863 621.909668,797.858582 620.517029,796.022461 
	C620.517029,805.162354 620.517029,813.217590 620.517029,821.518555 
	C618.003479,822.222534 616.146667,822.734558 616.165466,819.195984 
	C616.219177,809.066162 616.184387,798.935852 616.184387,788.730164 
	C619.487000,787.288330 621.444763,788.167969 623.246887,791.077148 
	C627.663208,798.206665 632.396362,805.140015 637.002075,812.152283 
	C637.440125,812.053589 637.878235,811.954895 638.316284,811.856201 
	C638.316284,804.071594 638.316284,796.286987 638.316284,788.342407 
	C640.222595,788.241943 641.345215,788.182739 642.719116,788.110352 
	C642.719116,799.375610 642.719116,810.461609 642.719116,821.594177 
	C639.517151,822.739319 637.517334,821.809387 635.760193,818.887878 
	C631.996094,812.629150 627.857910,806.595276 623.640869,800.152222 
M638.460266,813.117554 
	C638.391113,813.303162 638.321960,813.488708 638.252869,813.674316 
	C638.427490,813.622253 638.602112,813.570251 638.460266,813.117554 
z"/>
<path fill="#25394E" opacity="1.000000" stroke="none" 
	d="
M901.860107,814.630005 
	C897.086182,821.694885 891.063416,823.924500 883.088562,821.879333 
	C876.893250,820.290527 873.255798,815.101501 872.734070,807.108032 
	C871.949524,795.088745 876.928406,788.278748 886.885559,787.751953 
	C896.402649,787.248413 902.314697,791.648682 903.362244,801.107727 
	C903.837036,805.394470 902.512756,809.880554 901.860107,814.630005 
M882.160706,793.360596 
	C877.283386,798.307434 875.466980,806.735962 878.955383,812.543335 
	C880.451782,815.034729 883.648193,817.219788 886.499329,818.017578 
	C890.948181,819.262451 895.042847,817.654480 897.390259,813.154053 
	C900.090149,807.977966 899.573181,798.915894 896.134827,795.110352 
	C892.351929,790.923523 887.718384,791.060242 882.160706,793.360596 
z"/>
<path fill="#25394E" opacity="1.000000" stroke="none" 
	d="
M746.266479,791.733887 
	C751.669556,798.505066 751.891418,805.783264 749.367676,813.218872 
	C747.048462,820.051758 741.210938,823.052917 732.941711,822.254150 
	C725.928162,821.576660 721.119568,817.406555 720.137817,810.454102 
	C719.633057,806.879639 719.550598,803.091064 720.144165,799.544250 
	C722.100891,787.853088 735.715332,783.700989 746.266479,791.733887 
M724.437012,807.951599 
	C726.229492,815.898560 729.720642,818.885620 736.501831,818.274231 
	C742.540649,817.729797 745.910278,813.425232 745.960144,805.854187 
	C745.975281,803.561462 745.745911,801.178040 745.107666,798.987976 
	C743.603577,793.826965 740.139954,791.610962 734.588806,791.827454 
	C729.595337,792.022339 726.162354,794.725464 725.056519,799.736389 
	C724.524658,802.146423 724.544250,804.678162 724.437012,807.951599 
z"/>
<path fill="#25394E" opacity="1.000000" stroke="none" 
	d="
M312.482391,793.609680 
	C317.270111,787.139282 323.739807,786.824036 330.267578,788.315247 
	C336.689697,789.782227 339.491455,794.845764 340.530731,801.053589 
	C342.826691,814.767517 335.159729,823.712646 322.352997,822.198059 
	C316.060211,821.453796 311.539642,817.670288 310.289124,811.341736 
	C309.116730,805.408508 308.992218,799.418396 312.482391,793.609680 
M314.812775,809.518799 
	C316.783173,816.340454 320.224701,818.889038 326.617767,818.261108 
	C332.023682,817.730103 335.447601,814.040344 335.873047,807.726135 
	C336.059845,804.953613 335.882843,802.035217 335.204651,799.351501 
	C333.859375,794.028137 330.446747,791.731506 324.966217,791.820007 
	C319.873352,791.902283 316.260651,794.407532 315.173431,799.377258 
	C314.513458,802.394043 314.782623,805.614075 314.812775,809.518799 
z"/>
<path fill="#2A3D52" opacity="1.000000" stroke="none" 
	d="
M654.249939,822.034729 
	C652.914062,821.329346 651.847351,820.759460 651.256470,819.872498 
	C650.870605,819.293396 651.171143,818.254272 651.171082,817.421204 
	C651.170105,807.800720 651.170471,798.180298 651.170471,788.332520 
	C656.273987,788.332520 660.953369,787.823059 665.478882,788.440796 
	C674.319092,789.647400 678.659729,795.771973 678.396240,805.621033 
	C678.140564,815.177246 673.259155,820.874451 664.209900,821.849304 
	C661.076660,822.186951 657.885681,821.989014 654.249939,822.034729 
M655.851318,796.636597 
	C655.851318,803.724426 655.851318,810.812195 655.851318,817.953125 
	C658.373047,817.953125 660.205750,818.067017 662.019958,817.932251 
	C667.934204,817.492859 671.647217,814.618469 673.062805,809.515564 
	C676.026062,798.833618 670.480774,791.905212 659.311707,791.967285 
	C656.360901,791.983582 655.450623,792.983276 655.851318,796.636597 
z"/>
<path fill="#263A4F" opacity="1.000000" stroke="none" 
	d="
M352.606689,819.516846 
	C346.123627,813.141846 344.684479,802.153992 349.142792,794.985535 
	C353.568726,787.869202 363.353668,785.750732 373.918579,789.707336 
	C374.060394,793.249207 372.379608,793.605347 369.304749,792.769287 
	C356.839386,789.380249 348.771179,797.312683 351.917358,809.721680 
	C353.259064,815.013611 356.612091,817.893494 362.192505,818.200256 
	C364.643677,818.335083 367.120819,817.998108 369.931793,817.858154 
	C369.931793,814.549438 369.931793,811.515808 369.931793,808.113403 
	C367.767548,808.113403 365.664734,808.113403 363.618835,808.113403 
	C362.971100,803.418701 363.806976,803.155212 374.661804,804.372498 
	C374.661804,809.752930 374.661804,815.166565 374.661804,820.775635 
	C367.251862,822.558228 359.964355,823.930725 352.606689,819.516846 
z"/>
<path fill="#263A4F" opacity="1.000000" stroke="none" 
	d="
M820.440918,817.026306 
	C824.695984,817.604736 828.567078,818.032288 832.910278,818.511963 
	C832.910278,814.586853 832.910278,811.553711 832.910278,808.632568 
	C831.122009,806.373047 825.456299,810.938721 826.053162,804.275269 
	C829.854675,804.275269 833.598328,804.275269 837.638306,804.275269 
	C837.638306,809.693787 837.638306,815.100830 837.638306,820.496277 
	C826.327759,824.354736 816.948425,822.764404 812.494812,816.257019 
	C808.309570,810.141785 808.761902,798.874634 813.418457,793.252319 
	C818.190125,787.491028 827.872437,786.058411 836.942871,789.837524 
	C836.933716,794.120850 834.582764,793.331299 831.714294,792.520752 
	C824.485840,790.478027 818.532776,792.719360 815.813232,798.185425 
	C812.600098,804.643555 814.365784,812.419861 820.440918,817.026306 
z"/>
<path fill="#2B3E52" opacity="1.000000" stroke="none" 
	d="
M513.918457,814.056641 
	C515.442810,816.635925 516.795837,818.889648 518.272217,821.348816 
	C514.945068,822.782532 512.828735,822.173767 511.367981,819.034729 
	C510.323639,816.790405 508.712341,814.805542 507.710266,812.546814 
	C506.067902,808.844910 503.676056,806.992126 498.864349,808.732910 
	C498.864349,811.712463 498.707703,815.152222 498.908417,818.570923 
	C499.108948,821.985901 497.559265,822.583740 494.446381,821.660339 
	C494.446381,810.658875 494.446381,799.622375 494.446381,788.325623 
	C498.902405,788.325623 503.185181,788.042847 507.412262,788.406921 
	C511.457764,788.755371 514.675598,790.721069 515.636353,795.121521 
	C516.616882,799.612061 515.458557,803.320068 511.572113,806.003296 
	C511.048126,806.365051 510.541138,806.751404 509.825928,807.272339 
	C511.197601,809.531677 512.472351,811.631348 513.918457,814.056641 
M500.511047,792.089294 
	C499.744720,795.916260 498.978394,799.743225 498.115570,804.052063 
	C501.096802,804.052063 502.868469,804.109497 504.635162,804.040100 
	C508.370270,803.893311 510.980255,802.433350 511.141571,798.239075 
	C511.309723,793.867798 508.442200,792.649597 504.864258,792.218933 
	C503.723663,792.081665 502.561920,792.119934 500.511047,792.089294 
z"/>
<path fill="#2B3E52" opacity="1.000000" stroke="none" 
	d="
M779.309631,794.019958 
	C780.992126,799.983398 779.180481,804.186707 773.782715,807.079529 
	C776.660156,811.942017 779.412476,816.593140 782.277466,821.434631 
	C778.852600,822.794250 776.726990,822.081970 775.285828,818.920044 
	C774.256470,816.661743 772.570557,814.691589 771.629395,812.406677 
	C770.012268,808.480713 767.342590,807.294006 763.000732,808.575317 
	C763.000732,812.711548 763.000732,816.986877 763.000732,821.714722 
	C761.278992,821.791260 759.944885,821.850525 758.378296,821.920166 
	C758.378296,810.543579 758.378296,799.612671 758.378296,788.050781 
	C765.775085,788.955566 773.968506,785.129761 779.309631,794.019958 
M762.951599,803.271729 
	C765.811523,803.379639 768.940247,804.234253 771.437805,803.335266 
	C773.130371,802.726135 774.829956,799.667114 774.860901,797.677856 
	C774.886536,796.032898 772.791138,793.618408 771.060791,792.865173 
	C768.797424,791.879944 765.968201,792.194580 762.865845,791.901184 
	C762.865845,795.745056 762.865845,799.034363 762.951599,803.271729 
z"/>
<path fill="#2B3E52" opacity="1.000000" stroke="none" 
	d="
M867.627808,818.545532 
	C868.267334,819.728638 868.687195,820.596191 869.137512,821.526733 
	C865.718750,822.827698 863.594971,821.882324 862.185425,818.763000 
	C861.231201,816.651367 859.743896,814.781189 858.783081,812.671875 
	C857.140137,809.064880 854.863647,806.928772 849.864441,808.683655 
	C849.864441,811.658997 849.713928,815.088684 849.907349,818.498779 
	C850.095947,821.824219 848.708679,822.676880 845.458923,821.654663 
	C845.458923,810.667969 845.458923,799.600342 845.458923,788.065308 
	C848.973389,788.065308 852.270874,787.927185 855.552185,788.098511 
	C860.159058,788.339111 864.618347,789.046692 866.395874,794.314209 
	C868.049744,799.215210 866.497375,803.064880 860.886963,807.323425 
	C863.037598,810.920471 865.222839,814.575195 867.627808,818.545532 
M849.853333,797.565918 
	C849.853333,799.674072 849.853333,801.782227 849.853333,805.583374 
	C854.406616,803.870239 858.172302,802.973755 861.237183,800.993103 
	C862.194885,800.374084 862.046448,795.444824 861.049927,794.880554 
	C857.884521,793.088013 854.080322,792.423462 849.853394,791.115784 
	C849.853394,793.992676 849.853394,795.302063 849.853333,797.565918 
z"/>
<path fill="#293C51" opacity="1.000000" stroke="none" 
	d="
M460.120789,801.011108 
	C460.120789,808.144470 460.120789,814.779419 460.120789,821.717773 
	C458.651978,821.717773 457.429504,821.717773 455.752747,821.717773 
	C455.752747,816.829346 455.752747,811.916199 455.752747,806.657898 
	C450.068451,806.657898 444.821472,806.657898 439.086792,806.657898 
	C439.086792,811.416992 439.086792,816.319092 439.086792,821.677124 
	C437.303436,821.781006 435.971405,821.858643 434.393433,821.950562 
	C434.393433,810.587280 434.393433,799.667542 434.393433,788.768799 
	C438.842010,787.892029 438.845184,787.892029 438.858429,793.093506 
	C438.865570,795.900085 438.859680,798.706604 438.859680,801.845459 
	C444.502411,801.845459 449.885406,801.845459 455.706360,801.845459 
	C455.706360,797.330627 455.706360,792.906677 455.706360,788.323059 
	C457.255554,788.219482 458.385498,788.143921 460.120789,788.027954 
	C460.120789,792.304749 460.120789,796.408752 460.120789,801.011108 
z"/>
<path fill="#293C51" opacity="1.000000" stroke="none" 
	d="
M980.179565,821.865845 
	C979.750549,810.806152 979.750549,799.881409 979.750549,788.402893 
	C980.657837,788.317566 981.991943,788.192139 983.837708,788.018616 
	C983.837708,792.879944 983.837708,797.299561 983.837708,801.939941 
	C989.559326,801.939941 994.813721,801.939941 1000.568176,801.939941 
	C1000.568176,797.477539 1000.568176,793.080933 1000.568176,788.388489 
	C1002.254456,788.280518 1003.465576,788.202942 1004.908325,788.110535 
	C1004.908325,799.353821 1004.908325,810.298157 1004.908325,821.739502 
	C1003.678101,821.804138 1002.360229,821.873474 1000.727539,821.959290 
	C1000.727539,816.732849 1000.727539,811.935486 1000.727539,806.720215 
	C995.086670,806.720215 989.719543,806.720215 983.858337,806.720215 
	C983.858337,810.843384 983.738831,814.976868 983.901978,819.099121 
	C984.003723,821.666809 982.840088,822.320923 980.179565,821.865845 
z"/>
<path fill="#263A4F" opacity="1.000000" stroke="none" 
	d="
M583.114990,821.997192 
	C582.638733,821.130920 582.267151,820.173096 582.540771,819.464539 
	C586.242188,809.880493 589.982483,800.310364 593.868591,790.800232 
	C594.331299,789.667847 595.660278,788.245239 596.677429,788.169983 
	C597.638000,788.098938 599.233154,789.418518 599.663391,790.484009 
	C603.816284,800.767456 607.782104,811.126526 611.796875,821.452515 
	C608.428284,822.954285 606.950989,821.680054 605.803406,818.559692 
	C603.207153,811.500427 599.217712,809.372742 591.949829,811.637024 
	C590.229126,812.173096 589.268311,815.299683 588.063965,817.298523 
	C586.898743,819.232422 587.300415,822.616821 583.114990,821.997192 
M592.410767,806.055847 
	C595.188660,806.594788 597.966614,807.133728 601.778748,807.873352 
	C599.876892,802.780762 598.459717,798.986023 596.753418,794.416992 
	C595.198181,798.634705 593.966492,801.975098 592.410767,806.055847 
z"/>
<path fill="#2A3D52" opacity="1.000000" stroke="none" 
	d="
M487.324097,790.885376 
	C482.708740,791.703369 478.176086,792.107239 473.245728,792.546570 
	C473.245728,795.379822 473.245728,798.434753 473.245728,802.177246 
	C476.506622,802.177246 479.941376,802.017639 483.346069,802.267517 
	C484.472565,802.350220 485.521637,803.487854 486.606110,804.143188 
	C485.574860,804.846436 484.585602,806.068359 483.504547,806.155884 
	C480.206512,806.422852 476.873138,806.252808 473.208862,806.252808 
	C473.208862,810.058105 473.208862,813.639099 473.208862,817.674683 
	C477.539917,817.674683 482.113953,817.674683 487.065735,817.674683 
	C487.143158,819.296570 487.200256,820.492493 487.261261,821.770264 
	C480.801758,821.770264 474.730164,821.770264 468.416138,821.770264 
	C468.416138,810.595825 468.416138,799.684448 468.416138,788.054138 
	C474.212799,788.054138 479.962494,787.984009 485.704651,788.159851 
	C486.295044,788.177917 486.840485,789.665588 487.324097,790.885376 
z"/>
<path fill="#2A3D52" opacity="1.000000" stroke="none" 
	d="
M398.510864,822.035461 
	C392.946198,822.035889 387.831360,822.035889 382.447296,822.035889 
	C382.447296,810.674255 382.447296,799.764954 382.447296,788.447388 
	C388.455139,788.447388 394.514618,788.447388 400.646698,788.447388 
	C401.555634,792.105347 401.555634,792.106445 396.018219,792.111633 
	C393.210419,792.114319 390.402618,792.112122 387.231873,792.112122 
	C387.231873,795.403076 387.231873,798.457764 387.231873,802.178040 
	C390.696503,802.178040 394.296783,802.042114 397.874054,802.269104 
	C398.821564,802.329224 399.698242,803.505798 400.607452,804.169678 
	C399.733795,804.863403 398.896698,806.093079 397.979950,806.155701 
	C394.511169,806.392578 391.016571,806.250916 387.198700,806.250916 
	C387.198700,810.069580 387.198700,813.655640 387.198700,817.684082 
	C391.547638,817.684082 396.123352,817.684082 400.699097,817.684082 
	C401.054688,818.113403 401.410248,818.542725 401.765839,818.972046 
	C400.830780,819.993042 399.895752,821.014038 398.510864,822.035461 
z"/>
<path fill="#263A4F" opacity="1.000000" stroke="none" 
	d="
M539.313721,793.677979 
	C537.174500,797.463013 538.640991,799.778259 541.703674,801.336853 
	C544.214294,802.614441 546.870789,803.602783 549.442017,804.764893 
	C553.482849,806.591248 554.962158,809.964661 554.593933,814.124573 
	C554.226135,818.279480 551.499329,821.032104 547.681213,821.677734 
	C543.819824,822.330566 539.724854,822.114014 535.810364,821.637085 
	C534.593079,821.488831 533.630432,819.250488 531.768799,817.039917 
	C537.164062,817.529236 540.814331,818.383972 544.317017,817.974670 
	C546.306885,817.742126 549.263794,815.666504 549.573364,814.007874 
	C549.885742,812.335327 547.857178,809.634277 546.138062,808.322449 
	C543.959106,806.659912 540.966736,806.113525 538.487854,804.782776 
	C534.249573,802.507385 532.946655,798.677795 533.924194,794.185913 
	C534.831604,790.016418 538.060974,788.141235 541.987976,788.024780 
	C545.848083,787.910278 549.728821,788.491760 553.626343,788.769653 
	C553.471008,792.391174 552.716736,793.379639 549.608459,792.881226 
	C546.375610,792.362793 542.936829,793.127991 539.313721,793.677979 
z"/>
<path fill="#2B3E52" opacity="1.000000" stroke="none" 
	d="
M701.865112,812.060181 
	C701.864990,815.510254 701.864990,818.480347 701.864990,821.450378 
	C701.451843,821.821411 701.038757,822.192383 700.625610,822.563354 
	C699.474670,821.507385 697.350891,820.475403 697.324097,819.391602 
	C697.070068,809.127380 697.172791,798.854309 697.172791,788.315430 
	C703.711731,788.315430 709.778687,788.315430 715.842285,788.315430 
	C716.215942,792.110840 716.215942,792.111328 710.671326,792.113708 
	C707.885620,792.114929 705.099915,792.113953 702.100708,792.113953 
	C702.100708,796.185425 702.100708,799.775940 702.100708,803.750244 
	C706.535706,803.750244 710.798401,803.750244 715.061096,803.750244 
	C715.373901,804.204224 715.686646,804.658264 715.999451,805.112244 
	C714.923157,806.038635 713.949646,807.558411 712.748901,807.766479 
	C710.326660,808.186157 707.761719,808.087646 705.291016,807.843689 
	C702.258301,807.544189 701.486633,808.941895 701.865112,812.060181 
z"/>
<path fill="#1F3349" opacity="1.000000" stroke="none" 
	d="
M566.559326,793.048584 
	C563.149292,792.313782 559.881165,792.058044 554.733032,791.655273 
	C556.748779,789.913757 557.791199,788.228516 558.885986,788.193787 
	C566.320312,787.958130 573.765625,788.070618 581.174927,788.070618 
	C581.418213,791.785034 581.418213,791.785034 571.365112,792.256409 
	C571.365112,801.914734 571.365112,811.620728 571.365112,821.709290 
	C569.699097,821.820618 568.490540,821.901428 566.701172,822.020996 
	C566.701172,812.341492 566.701172,802.934570 566.559326,793.048584 
z"/>
<path fill="#1F3349" opacity="1.000000" stroke="none" 
	d="
M407.356506,788.069763 
	C414.940521,788.069153 422.056702,788.069153 429.135986,788.069153 
	C429.386841,791.148499 429.386841,791.148499 419.208862,792.607361 
	C419.208862,802.137146 419.208862,811.722168 419.208862,821.695862 
	C417.717407,821.809021 416.515533,821.900146 414.843140,822.026978 
	C414.843140,812.029968 414.843140,802.299561 414.843140,792.167603 
	C411.145660,792.167603 407.877686,792.167603 404.609741,792.167603 
	C404.300262,791.721252 403.990814,791.274902 403.681335,790.828552 
	C404.750458,789.909119 405.819580,788.989746 407.356506,788.069763 
z"/>
<path fill="#1F3349" opacity="1.000000" stroke="none" 
	d="
M307.200684,791.617798 
	C303.754333,791.896545 300.645447,791.896545 297.216400,791.896545 
	C297.216400,802.124939 297.216400,811.714417 297.216400,821.691101 
	C295.716187,821.807251 294.509460,821.900635 292.841644,822.029724 
	C292.841644,812.026245 292.841644,802.289917 292.841644,792.155029 
	C289.136200,792.155029 285.863831,792.155029 282.591461,792.155029 
	C282.289185,791.703003 281.986938,791.250977 281.684692,790.798889 
	C282.761139,789.889465 283.809875,788.234131 284.918610,788.192993 
	C291.560120,787.945984 298.216644,788.141724 304.865601,788.034180 
	C307.415009,787.992920 308.181885,788.995300 307.200684,791.617798 
z"/>
<path fill="#1F3349" opacity="1.000000" stroke="none" 
	d="
M950.015625,788.379089 
	C957.969666,788.379089 965.923706,788.379089 973.911743,788.379089 
	C974.735046,791.647034 974.735046,791.647034 964.300476,792.328003 
	C964.300476,801.991943 964.300476,811.709045 964.300476,821.711304 
	C962.610291,821.711304 961.394104,821.711304 959.730835,821.711304 
	C959.730835,811.975708 959.730835,802.240601 959.730835,792.058594 
	C956.511047,792.058594 953.712952,792.058594 950.460632,791.610413 
	C950.009460,790.234497 950.012573,789.306824 950.015625,788.379089 
z"/>
<path fill="#25394E" opacity="1.000000" stroke="none" 
	d="
M949.678101,788.331787 
	C950.012573,789.306824 950.009460,790.234497 950.005981,791.510132 
	C949.539490,791.477051 949.073364,791.096069 948.289551,790.815796 
	C947.971802,790.267700 947.971741,789.618835 947.979248,788.645630 
	C948.437988,788.309021 948.889221,788.296753 949.678101,788.331787 
z"/>
<path fill="#C0C843" opacity="1.000000" stroke="none" 
	d="
M626.330750,323.289001 
	C626.165466,323.768738 625.831970,324.098175 625.498474,324.427612 
	C625.470215,323.995331 625.441956,323.563049 625.616455,322.988403 
	C625.819092,322.846069 626.162537,323.138672 626.330750,323.289001 
z"/>
<path fill="#F14740" opacity="1.000000" stroke="none" 
	d="
M927.710144,369.712708 
	C927.946533,369.456635 928.319641,369.337616 928.692810,369.218628 
	C928.681396,369.458649 928.670044,369.698669 928.392395,370.028564 
	C928.126160,370.118378 927.846924,369.849823 927.710144,369.712708 
z"/>
<path fill="#F14740" opacity="1.000000" stroke="none" 
	d="
M395.013489,521.025391 
	C394.859039,521.389954 394.514618,521.569641 394.170227,521.749329 
	C394.132660,521.485901 394.095093,521.222412 394.237854,520.729004 
	C394.553284,520.612854 394.688416,520.726746 395.013489,521.025391 
z"/>
<path fill="#25394E" opacity="1.000000" stroke="none" 
	d="
M925.735352,788.195435 
	C925.879761,788.501404 925.713562,788.696411 925.305359,788.914551 
	C925.246948,788.707214 925.367432,788.422729 925.735352,788.195435 
z"/>
<path fill="#25394E" opacity="1.000000" stroke="none" 
	d="
M910.902710,788.737671 
	C910.633240,788.926575 910.409851,788.790649 910.124634,788.417603 
	C910.316895,788.325623 910.612244,788.403076 910.902710,788.737671 
z"/>
<path fill="#FDFDFD" opacity="1.000000" stroke="none" 
	d="
M1016.672363,657.291626 
	C1011.114990,666.377869 1002.366211,664.571472 993.938721,665.170044 
	C993.938721,655.060242 993.938721,645.350220 993.938721,635.618652 
	C1013.415710,632.675232 1021.497192,642.291138 1016.672363,657.291626 
z"/>
<path fill="#FBFBFC" opacity="1.000000" stroke="none" 
	d="
M909.158936,669.788574 
	C910.883362,674.308777 912.488037,678.458801 914.277039,683.085388 
	C905.915833,683.085388 897.942505,683.085388 889.252441,683.085388 
	C893.334106,672.358948 897.300232,661.936157 901.688416,650.404297 
	C904.364441,657.326111 906.701904,663.372253 909.158936,669.788574 
z"/>
<path fill="#FBFBFC" opacity="1.000000" stroke="none" 
	d="
M324.820465,683.481567 
	C319.182495,683.454590 314.019897,683.433838 308.857544,683.385315 
	C308.562134,683.382507 308.268799,683.153198 307.372406,682.776001 
	C311.344482,672.336670 315.322845,661.880859 319.690735,650.401306 
	C324.042603,661.677307 328.072510,672.119019 332.457825,683.481628 
	C329.732330,683.481628 327.514099,683.481628 324.820465,683.481567 
z"/>
<path fill="#FFFFFF" opacity="1.000000" stroke="none" 
	d="
M638.618530,813.317871 
	C638.602112,813.570251 638.427490,813.622253 638.252869,813.674316 
	C638.321960,813.488708 638.391113,813.303162 638.618530,813.317871 
z"/>
<path fill="#FBFBFC" opacity="1.000000" stroke="none" 
	d="
M882.518127,793.177551 
	C887.718384,791.060242 892.351929,790.923523 896.134827,795.110352 
	C899.573181,798.915894 900.090149,807.977966 897.390259,813.154053 
	C895.042847,817.654480 890.948181,819.262451 886.499329,818.017578 
	C883.648193,817.219788 880.451782,815.034729 878.955383,812.543335 
	C875.466980,806.735962 877.283386,798.307434 882.518127,793.177551 
z"/>
<path fill="#FBFBFC" opacity="1.000000" stroke="none" 
	d="
M724.375549,807.553223 
	C724.544250,804.678162 724.524658,802.146423 725.056519,799.736389 
	C726.162354,794.725464 729.595337,792.022339 734.588806,791.827454 
	C740.139954,791.610962 743.603577,793.826965 745.107666,798.987976 
	C745.745911,801.178040 745.975281,803.561462 745.960144,805.854187 
	C745.910278,813.425232 742.540649,817.729797 736.501831,818.274231 
	C729.720642,818.885620 726.229492,815.898560 724.375549,807.553223 
z"/>
<path fill="#FBFBFC" opacity="1.000000" stroke="none" 
	d="
M314.723572,809.130798 
	C314.782623,805.614075 314.513458,802.394043 315.173431,799.377258 
	C316.260651,794.407532 319.873352,791.902283 324.966217,791.820007 
	C330.446747,791.731506 333.859375,794.028137 335.204651,799.351501 
	C335.882843,802.035217 336.059845,804.953613 335.873047,807.726135 
	C335.447601,814.040344 332.023682,817.730103 326.617767,818.261108 
	C320.224701,818.889038 316.783173,816.340454 314.723572,809.130798 
z"/>
<path fill="#FBFBFC" opacity="1.000000" stroke="none" 
	d="
M655.851562,796.155945 
	C655.450623,792.983276 656.360901,791.983582 659.311707,791.967285 
	C670.480774,791.905212 676.026062,798.833618 673.062805,809.515564 
	C671.647217,814.618469 667.934204,817.492859 662.019958,817.932251 
	C660.205750,818.067017 658.373047,817.953125 655.851318,817.953125 
	C655.851318,810.812195 655.851318,803.724426 655.851562,796.155945 
z"/>
<path fill="#FBFBFC" opacity="1.000000" stroke="none" 
	d="
M500.960449,792.083618 
	C502.561920,792.119934 503.723663,792.081665 504.864258,792.218933 
	C508.442200,792.649597 511.309723,793.867798 511.141571,798.239075 
	C510.980255,802.433350 508.370270,803.893311 504.635162,804.040100 
	C502.868469,804.109497 501.096802,804.052063 498.115570,804.052063 
	C498.978394,799.743225 499.744720,795.916260 500.960449,792.083618 
z"/>
<path fill="#FBFBFC" opacity="1.000000" stroke="none" 
	d="
M762.908691,802.797729 
	C762.865845,799.034363 762.865845,795.745056 762.865845,791.901184 
	C765.968201,792.194580 768.797424,791.879944 771.060791,792.865173 
	C772.791138,793.618408 774.886536,796.032898 774.860901,797.677856 
	C774.829956,799.667114 773.130371,802.726135 771.437805,803.335266 
	C768.940247,804.234253 765.811523,803.379639 762.908691,802.797729 
z"/>
<path fill="#FBFBFC" opacity="1.000000" stroke="none" 
	d="
M849.853394,797.088684 
	C849.853394,795.302063 849.853394,793.992676 849.853394,791.115784 
	C854.080322,792.423462 857.884521,793.088013 861.049927,794.880554 
	C862.046448,795.444824 862.194885,800.374084 861.237183,800.993103 
	C858.172302,802.973755 854.406616,803.870239 849.853333,805.583374 
	C849.853333,801.782227 849.853333,799.674072 849.853394,797.088684 
z"/>
<path fill="#FBFBFC" opacity="1.000000" stroke="none" 
	d="
M592.572754,805.685669 
	C593.966492,801.975098 595.198181,798.634705 596.753418,794.416992 
	C598.459717,798.986023 599.876892,802.780762 601.778748,807.873352 
	C597.966614,807.133728 595.188660,806.594788 592.572754,805.685669 
z"/>
</svg>